<svg xmlns="http://www.w3.org/2000/svg" viewBox="0 0 20 30" width="20" height="30">
	<style>
		tspan { white-space:pre }
		.shp0 { fill: #000000;stroke: #000000 } 
	</style>
	<g id="1">
		<g id="форма">
			<g id="цена">
				<path id="Shape 1 copy" class="shp0" d="M10.65 16.14L10.65 16.13C12.62 16.13 14.47 15.39 15.86 14.03C17.24 12.69 18 10.92 18 9.05C18 7.18 17.24 5.43 15.86 4.11C14.48 2.79 12.63 2.04 10.66 2C10.65 2 10.65 2 10.65 2L5.31 2C5.09 2 4.9 2.18 4.9 2.39L4.9 15.35L2.41 15.35C2.19 15.35 2 15.53 2 15.74C2 15.96 2.19 16.14 2.41 16.14L4.9 16.14L4.9 19.43L2.41 19.43C2.19 19.43 2 19.61 2 19.83C2 20.04 2.19 20.22 2.41 20.22L4.9 20.22L4.9 26.61C4.9 26.82 5.09 27 5.31 27C5.54 27 5.73 26.82 5.73 26.61L5.73 20.22L14.25 20.22C14.47 20.22 14.66 20.04 14.66 19.83C14.66 19.61 14.47 19.43 14.25 19.43L5.73 19.43L5.73 16.14L10.65 16.14L10.65 16.14ZM5.73 2.78L5.73 2.78L10.65 2.78C14.31 2.86 17.18 5.61 17.18 9.04C17.18 12.51 14.25 15.34 10.65 15.34L5.73 15.34L5.73 2.78ZM10.65 16.14L10.65 16.13C12.62 16.13 14.47 15.39 15.86 14.03C17.24 12.69 18 10.92 18 9.05C18 7.18 17.24 5.43 15.86 4.11C14.48 2.79 12.63 2.04 10.66 2C10.65 2 10.65 2 10.65 2L5.31 2C5.09 2 4.9 2.18 4.9 2.39L4.9 15.35L2.41 15.35C2.19 15.35 2 15.53 2 15.74C2 15.96 2.19 16.14 2.41 16.14L4.9 16.14L4.9 19.43L2.41 19.43C2.19 19.43 2 19.61 2 19.83C2 20.04 2.19 20.22 2.41 20.22L4.9 20.22L4.9 26.61C4.9 26.82 5.09 27 5.31 27C5.54 27 5.73 26.82 5.73 26.61L5.73 20.22L14.25 20.22C14.47 20.22 14.66 20.04 14.66 19.83C14.66 19.61 14.47 19.43 14.25 19.43L5.73 19.43L5.73 16.14L10.65 16.14L10.65 16.14ZM5.73 2.78L5.73 2.78L10.65 2.78C14.31 2.86 17.18 5.61 17.18 9.04C17.18 12.51 14.25 15.34 10.65 15.34L5.73 15.34L5.73 2.78Z" />
			</g>
		</g>
	</g>
</svg>